<?xml version="1.0" encoding="UTF-8"?>
<svg enable-background="new 0 0 32 32" version="1.1" viewBox="0 0 32 32" xml:space="preserve" xmlns="http://www.w3.org/2000/svg">
<style type="text/css">
	.st0{fill:#FFFFFF;}
</style>
		<path class="st0" d="m25 18c1.7 0 3-1.3 3-3s-1.3-3-3-3-3 1.3-3 3 1.3 3 3 3zm-1-4h2v2h-2v-2zm1 12c1.7 0 3-1.3 3-3s-1.3-3-3-3-3 1.3-3 3 1.3 3 3 3zm-1-4h2v2h-2v-2zm-7 4c1.7 0 3-1.3 3-3s-1.3-3-3-3-3 1.3-3 3 1.3 3 3 3zm-1-4h2v2h-2v-2zm12-22h-22c-2.2 0-4 1.8-4 4v24c0 2.2 1.8 4 4 4h22c2.2 0 4-1.8 4-4v-24c0-2.2-1.8-4-4-4zm2 28c0 1.1-0.9 2-2 2h-22c-1.1 0-2-0.9-2-2v-20h26v20zm0-22h-26v-2c0-1.1 0.9-2 2-2h22c1.1 0 2 0.9 2 2v2zm-13 12c1.7 0 3-1.3 3-3s-1.3-3-3-3-3 1.3-3 3 1.3 3 3 3zm-1-4h2v2h-2v-2zm-7 12c1.7 0 3-1.3 3-3s-1.3-3-3-3-3 1.3-3 3 1.3 3 3 3zm-1-4h2v2h-2v-2zm1-4c1.7 0 3-1.3 3-3s-1.3-3-3-3-3 1.3-3 3 1.3 3 3 3zm-1-4h2v2h-2v-2z"/>
</svg>
